<svg xmlns="http://www.w3.org/2000/svg" xmlns:xlink="http://www.w3.org/1999/xlink" width="840" height="494.2"><rect width="840" height="494.2" rx="5" ry="5" class="a"/><svg y="0%" x="0%"><circle cx="20" cy="20" r="6" fill="#ff5f58"/><circle cx="40" cy="20" r="6" fill="#ffbd2e"/><circle cx="60" cy="20" r="6" fill="#18c132"/></svg><svg height="434.2" viewBox="0 0 80 43.42" width="800" x="15" xmlns="http://www.w3.org/2000/svg" xmlns:xlink="http://www.w3.org/1999/xlink" y="50"><style>@keyframes s{0%{transform:translateX(-160px)}8.1%{transform:translateX(-320px)}10%{transform:translateX(-400px)}10.1%{transform:translateX(-560px)}11.5%{transform:translateX(-640px)}13%{transform:translateX(-720px)}14.8%{transform:translateX(-800px)}16%{transform:translateX(-960px)}19%{transform:translateX(-1120px)}21.2%{transform:translateX(-1440px)}22%{transform:translateX(-1600px)}26.8%{transform:translateX(-1680px)}35.4%{transform:translateX(-1760px)}44.4%{transform:translateX(-1840px)}48.5%{transform:translateX(-1920px)}53.9%{transform:translateX(-2000px)}55.7%{transform:translateX(-2080px)}57.6%{transform:translateX(-2160px)}60.3%{transform:translateX(-2240px)}62.7%{transform:translateX(-2320px)}65%{transform:translateX(-2400px)}67.4%{transform:translateX(-2480px)}69.7%{transform:translateX(-2560px)}72.1%{transform:translateX(-2640px)}75.2%{transform:translateX(-2720px)}77.4%{transform:translateX(-2800px)}80%{transform:translateX(-3120px)}80.2%{transform:translateX(-3280px)}to{transform:translateX(-3440px)}}.a{fill:#000}.f{fill:#408c09}.g{fill:#138788}.h{fill:#434541}.i{font-weight:700}.i,.j{fill:#9a9a9a}.k{fill:#408c09;font-weight:700}.l{fill:#613c68}.m{fill:#285093}.p{fill:#b79006;font-weight:700}.u{fill:#e80e20}.v{fill:#585858}</style><g font-size="1.67" font-family="Monaco,Consolas,Menlo,'Bitstream Vera Sans Mono','Powerline Symbols',monospace"><defs><symbol id="1"><text y="1.67" class="f">●</text><text x="2.004" y="1.67" class="g">⌂</text><text x="4.008" y="1.67" class="h">→</text></symbol><symbol id="2"><text y="1.67" class="f">●</text><text x="2.004" y="1.67" class="g">⌂</text><text x="4.008" y="1.67" class="h">→</text><text x="6.012" y="1.67" class="i">police</text><text x="13.026" y="1.67" class="g">pksunkara/npm-police</text></symbol><symbol id="3"><text y="1.67" class="f">info</text><text x="4.008" y="1.67" class="j">:</text><text x="9.018" y="1.67" class="j">Welcome</text><text x="17.034" y="1.67" class="j">to</text><text x="20.04" y="1.67" class="h">Police</text></symbol><symbol id="4"><text y="1.67" class="f">info</text><text x="4.008" y="1.67" class="j">:</text><text x="9.018" y="1.67" class="j">It</text><text x="12.024" y="1.67" class="j">worked</text><text x="19.038" y="1.67" class="j">if</text><text x="22.044" y="1.67" class="j">it</text><text x="25.05" y="1.67" class="j">ends</text><text x="30.06" y="1.67" class="j">with</text><text x="35.07" y="1.67" class="h">Police</text><text x="42.084" y="1.67" class="k">ok</text></symbol><symbol id="5"><text y="1.67" class="f">info</text><text x="4.008" y="1.67" class="j">:</text><text x="9.018" y="1.67" class="j">Policing</text><text x="18.036" y="1.67" class="g">pksunkara/npm-police</text></symbol><symbol id="6"><text y="1.67" class="f">info</text><text x="4.008" y="1.67" class="j">:</text><text x="11.022" y="1.67" class="j">Getting</text><text x="19.038" y="1.67" class="j">commit</text><text x="26.052" y="1.67" class="l">645189030e</text></symbol><symbol id="7"><text y="1.67" class="f">info</text><text x="4.008" y="1.67" class="j">:</text><text x="11.022" y="1.67" class="j">Getting</text><text x="19.038" y="1.67" class="j">tree</text><text x="24.048" y="1.67" class="l">ea2bca6e2f</text></symbol><symbol id="8"><text y="1.67" class="f">info</text><text x="4.008" y="1.67" class="j">:</text><text x="11.022" y="1.67" class="j">Getting</text><text x="19.038" y="1.67" class="j">blob</text><text x="24.048" y="1.67" class="l">4bc0c05e35</text></symbol><symbol id="9"><text y="1.67" class="f">info</text><text x="4.008" y="1.67" class="j">:</text><text x="11.022" y="1.67" class="k">✓</text><text x="13.026" y="1.67" class="j">Checked</text><text x="21.042" y="1.67" class="m">async</text></symbol><symbol id="10"><text y="1.67" class="f">info</text><text x="4.008" y="1.67" class="j">:</text><text x="11.022" y="1.67" class="k">✓</text><text x="13.026" y="1.67" class="j">Checked</text><text x="21.042" y="1.67" class="m">colors</text></symbol><symbol id="11"><text y="1.67" class="f">info</text><text x="4.008" y="1.67" class="j">:</text><text x="11.022" y="1.67" class="k">✓</text><text x="13.026" y="1.67" class="j">Checked</text><text x="21.042" y="1.67" class="m">eyes</text></symbol><symbol id="12"><text y="1.67" class="f">info</text><text x="4.008" y="1.67" class="j">:</text><text x="11.022" y="1.67" class="k">✓</text><text x="13.026" y="1.67" class="j">Checked</text><text x="21.042" y="1.67" class="m">inquirer</text></symbol><symbol id="13"><text y="1.67" class="f">info</text><text x="4.008" y="1.67" class="j">:</text><text x="11.022" y="1.67" class="k">✓</text><text x="13.026" y="1.67" class="j">Checked</text><text x="21.042" y="1.67" class="m">moment</text></symbol><symbol id="14"><text y="1.67" class="f">info</text><text x="4.008" y="1.67" class="j">:</text><text x="11.022" y="1.67" class="k">✓</text><text x="13.026" y="1.67" class="j">Checked</text><text x="21.042" y="1.67" class="m">nconf</text></symbol><symbol id="15"><text y="1.67" class="f">info</text><text x="4.008" y="1.67" class="j">:</text><text x="11.022" y="1.67" class="k">✓</text><text x="13.026" y="1.67" class="j">Checked</text><text x="21.042" y="1.67" class="m">npmconf</text></symbol><symbol id="16"><text y="1.67" class="f">info</text><text x="4.008" y="1.67" class="j">:</text><text x="11.022" y="1.67" class="k">✓</text><text x="13.026" y="1.67" class="j">Checked</text><text x="21.042" y="1.67" class="m">optimist</text></symbol><symbol id="17"><text y="1.67" class="f">info</text><text x="4.008" y="1.67" class="j">:</text><text x="11.022" y="1.67" class="k">✓</text><text x="13.026" y="1.67" class="j">Checked</text><text x="21.042" y="1.67" class="m">pkginfo</text></symbol><symbol id="18"><text y="1.67" class="f">info</text><text x="4.008" y="1.67" class="j">:</text><text x="11.022" y="1.67" class="k">✓</text><text x="13.026" y="1.67" class="j">Checked</text><text x="21.042" y="1.67" class="m">request</text></symbol><symbol id="19"><text y="1.67" class="f">info</text><text x="4.008" y="1.67" class="j">:</text><text x="11.022" y="1.67" class="k">✓</text><text x="13.026" y="1.67" class="j">Checked</text><text x="21.042" y="1.67" class="m">semver</text></symbol><symbol id="20"><text y="1.67" class="f">info</text><text x="4.008" y="1.67" class="j">:</text><text x="11.022" y="1.67" fill="#be0004" font-weight="700">✗</text><text x="13.026" y="1.67" class="j">Need</text><text x="18.036" y="1.67" class="j">to</text><text x="21.042" y="1.67" class="j">update</text><text x="28.056" y="1.67" class="m">winston</text><text x="36.072" y="1.67" class="j">to</text><text x="39.078" y="1.67" fill="#b79006">3.2.1</text></symbol><symbol id="21"><text y="1.67" class="f">info</text><text x="4.008" y="1.67" class="j">:</text><text x="11.022" y="1.67" class="p">-</text><text x="13.026" y="1.67" class="j">Suggest</text><text x="21.042" y="1.67" class="j">adding</text><text x="28.056" y="1.67" class="p">devDependencies</text></symbol><symbol id="22"><text y="1.67" class="f">info</text><text x="4.008" y="1.67" class="j">:</text><text x="9.018" y="1.67" class="h">Police</text><text x="16.032" y="1.67" class="k">ok</text></symbol><symbol id="a"><path fill="transparent" d="M0 0h80v20H0z"/></symbol><symbol id="b"><path fill="#929292" d="M0 0h1.102v2.171H0z"/></symbol></defs><path class="a" d="M0 0h80v43.42H0z"/><g style="animation-duration:13.038533999999999s;animation-iteration-count:infinite;animation-name:s;animation-timing-function:steps(1,end)"><svg width="3520"><svg><use xlink:href="#a"/><use xlink:href="#b" x="-.004"/></svg><svg x="80"><use xlink:href="#a"/><use xlink:href="#b" x="-.004"/></svg><svg x="160"><use xlink:href="#a"/><use xlink:href="#b" x="5.996"/><use xlink:href="#1"/></svg><svg x="240"><use xlink:href="#a"/><use xlink:href="#b" x="6.996"/><text y="1.67" class="f">●</text><text x="2.004" y="1.67" class="g">⌂</text><text x="4.008" y="1.67" class="h">→</text><text x="6.012" y="1.67" class="j">p</text></svg><svg x="320"><use xlink:href="#a"/><use xlink:href="#b" x="6.996"/><text y="1.67" class="f">●</text><text x="2.004" y="1.67" class="g">⌂</text><text x="4.008" y="1.67" class="h">→</text><text x="6.012" y="1.67" class="i">p</text></svg><svg x="400"><use xlink:href="#a"/><use xlink:href="#b" x="7.996"/><text y="1.67" class="f">●</text><text x="2.004" y="1.67" class="g">⌂</text><text x="4.008" y="1.67" class="h">→</text><text x="6.012" y="1.67" class="i">po</text></svg><svg x="480"><use xlink:href="#a"/><use xlink:href="#b" x="7.996"/><text y="1.67" class="f">●</text><text x="2.004" y="1.67" class="g">⌂</text><text x="4.008" y="1.67" class="h">→</text><text x="6.012" y="1.67" class="u">po</text></svg><svg x="560"><use xlink:href="#a"/><use xlink:href="#b" x="7.996"/><text y="1.67" class="f">●</text><text x="2.004" y="1.67" class="g">⌂</text><text x="4.008" y="1.67" class="h">→</text><text x="6.012" y="1.67" class="u">po</text><text x="8.016" y="1.67" class="v">lice</text><text x="13.026" y="1.67" class="v">pksunkara/npm-police</text></svg><svg x="640"><use xlink:href="#a"/><use xlink:href="#b" x="8.996"/><text y="1.67" class="f">●</text><text x="2.004" y="1.67" class="g">⌂</text><text x="4.008" y="1.67" class="h">→</text><text x="6.012" y="1.67" class="u">pol</text><text x="9.018" y="1.67" class="v">ice</text><text x="13.026" y="1.67" class="v">pksunkara/npm-police</text></svg><svg x="720"><use xlink:href="#a"/><use xlink:href="#b" x="9.996"/><text y="1.67" class="f">●</text><text x="2.004" y="1.67" class="g">⌂</text><text x="4.008" y="1.67" class="h">→</text><text x="6.012" y="1.67" class="u">poli</text><text x="10.02" y="1.67" class="v">ce</text><text x="13.026" y="1.67" class="v">pksunkara/npm-police</text></svg><svg x="800"><use xlink:href="#a"/><use xlink:href="#b" x="10.996"/><text y="1.67" class="f">●</text><text x="2.004" y="1.67" class="g">⌂</text><text x="4.008" y="1.67" class="h">→</text><text x="6.012" y="1.67" class="u">polic</text><text x="11.022" y="1.67" class="v">e</text><text x="13.026" y="1.67" class="v">pksunkara/npm-police</text></svg><svg x="880"><use xlink:href="#a"/><use xlink:href="#b" x="11.996"/><text y="1.67" class="f">●</text><text x="2.004" y="1.67" class="g">⌂</text><text x="4.008" y="1.67" class="h">→</text><text x="6.012" y="1.67" class="u">police</text><text x="13.026" y="1.67" class="v">pksunkara/npm-police</text></svg><svg x="960"><use xlink:href="#a"/><use xlink:href="#b" x="11.996"/><text y="1.67" class="f">●</text><text x="2.004" y="1.67" class="g">⌂</text><text x="4.008" y="1.67" class="h">→</text><text x="6.012" y="1.67" class="i">police</text><text x="13.026" y="1.67" class="v">pksunkara/npm-police</text></svg><svg x="1040"><use xlink:href="#a"/><use xlink:href="#b" x="32.996"/><text y="1.67" class="f">●</text><text x="2.004" y="1.67" class="g">⌂</text><text x="4.008" y="1.67" class="h">→</text><text x="6.012" y="1.67" class="i">police</text><text x="13.026" y="1.67" class="i">pksunkara/npm-police</text></svg><svg x="1120"><use xlink:href="#a"/><use xlink:href="#b" x="32.996"/><use xlink:href="#2"/></svg><svg x="1200"><use xlink:href="#a"/><use xlink:href="#b" x="-.004" y="2.146"/><use xlink:href="#2"/></svg><svg x="1280"><use xlink:href="#a"/><use xlink:href="#b" x="-.004" y="2.146"/><use xlink:href="#2"/></svg><svg x="1360"><use xlink:href="#a"/><use xlink:href="#b" x="-.004" y="2.146"/><use xlink:href="#2"/></svg><svg x="1440"><use xlink:href="#a"/><use xlink:href="#b" x="-.004" y="2.146"/><use xlink:href="#2"/></svg><svg x="1520"><use xlink:href="#a"/><use xlink:href="#b" x="-.004" y="4.317"/><use xlink:href="#2"/><use xlink:href="#3" y="2.171"/></svg><svg x="1600"><use xlink:href="#a"/><use xlink:href="#b" x="-.004" y="6.488"/><use xlink:href="#2"/><use xlink:href="#3" y="2.171"/><use xlink:href="#4" y="4.342"/></svg><svg x="1680"><use xlink:href="#a"/><use xlink:href="#b" x="-.004" y="8.659"/><use xlink:href="#2"/><use xlink:href="#3" y="2.171"/><use xlink:href="#4" y="4.342"/><use xlink:href="#5" y="6.513"/></svg><svg x="1760"><use xlink:href="#a"/><use xlink:href="#b" x="-.004" y="10.83"/><use xlink:href="#2"/><use xlink:href="#3" y="2.171"/><use xlink:href="#4" y="4.342"/><use xlink:href="#5" y="6.513"/><use xlink:href="#6" y="8.684"/></svg><svg x="1840"><use xlink:href="#a"/><use xlink:href="#b" x="-.004" y="13.001"/><use xlink:href="#2"/><use xlink:href="#3" y="2.171"/><use xlink:href="#4" y="4.342"/><use xlink:href="#5" y="6.513"/><use xlink:href="#6" y="8.684"/><use xlink:href="#7" y="10.855"/></svg><svg x="1920"><use xlink:href="#a"/><use xlink:href="#b" x="-.004" y="15.172"/><use xlink:href="#2"/><use xlink:href="#3" y="2.171"/><use xlink:href="#4" y="4.342"/><use xlink:href="#5" y="6.513"/><use xlink:href="#6" y="8.684"/><use xlink:href="#7" y="10.855"/><use xlink:href="#8" y="13.026"/></svg><svg x="2000"><use xlink:href="#a"/><use xlink:href="#b" x="-.004" y="17.343"/><use xlink:href="#2"/><use xlink:href="#3" y="2.171"/><use xlink:href="#4" y="4.342"/><use xlink:href="#5" y="6.513"/><use xlink:href="#6" y="8.684"/><use xlink:href="#7" y="10.855"/><use xlink:href="#8" y="13.026"/><use xlink:href="#9" y="15.197"/></svg><svg x="2080"><use xlink:href="#a"/><use xlink:href="#b" x="-.004" y="19.514"/><use xlink:href="#2"/><use xlink:href="#3" y="2.171"/><use xlink:href="#4" y="4.342"/><use xlink:href="#5" y="6.513"/><use xlink:href="#6" y="8.684"/><use xlink:href="#7" y="10.855"/><use xlink:href="#8" y="13.026"/><use xlink:href="#9" y="15.197"/><use xlink:href="#10" y="17.368"/></svg><svg x="2160"><use xlink:href="#a"/><use xlink:href="#b" x="-.004" y="21.685"/><use xlink:href="#2"/><use xlink:href="#3" y="2.171"/><use xlink:href="#4" y="4.342"/><use xlink:href="#5" y="6.513"/><use xlink:href="#6" y="8.684"/><use xlink:href="#7" y="10.855"/><use xlink:href="#8" y="13.026"/><use xlink:href="#9" y="15.197"/><use xlink:href="#10" y="17.368"/><use xlink:href="#11" y="19.539"/></svg><svg x="2240"><use xlink:href="#a"/><use xlink:href="#b" x="-.004" y="23.856"/><use xlink:href="#2"/><use xlink:href="#3" y="2.171"/><use xlink:href="#4" y="4.342"/><use xlink:href="#5" y="6.513"/><use xlink:href="#6" y="8.684"/><use xlink:href="#7" y="10.855"/><use xlink:href="#8" y="13.026"/><use xlink:href="#9" y="15.197"/><use xlink:href="#10" y="17.368"/><use xlink:href="#11" y="19.539"/><use xlink:href="#12" y="21.71"/></svg><svg x="2320"><use xlink:href="#a"/><use xlink:href="#b" x="-.004" y="26.027"/><use xlink:href="#2"/><use xlink:href="#3" y="2.171"/><use xlink:href="#4" y="4.342"/><use xlink:href="#5" y="6.513"/><use xlink:href="#6" y="8.684"/><use xlink:href="#7" y="10.855"/><use xlink:href="#8" y="13.026"/><use xlink:href="#9" y="15.197"/><use xlink:href="#10" y="17.368"/><use xlink:href="#11" y="19.539"/><use xlink:href="#12" y="21.71"/><use xlink:href="#13" y="23.881"/></svg><svg x="2400"><use xlink:href="#a"/><use xlink:href="#b" x="-.004" y="28.198"/><use xlink:href="#2"/><use xlink:href="#3" y="2.171"/><use xlink:href="#4" y="4.342"/><use xlink:href="#5" y="6.513"/><use xlink:href="#6" y="8.684"/><use xlink:href="#7" y="10.855"/><use xlink:href="#8" y="13.026"/><use xlink:href="#9" y="15.197"/><use xlink:href="#10" y="17.368"/><use xlink:href="#11" y="19.539"/><use xlink:href="#12" y="21.71"/><use xlink:href="#13" y="23.881"/><use xlink:href="#14" y="26.052"/></svg><svg x="2480"><use xlink:href="#a"/><use xlink:href="#b" x="-.004" y="30.369"/><use xlink:href="#2"/><use xlink:href="#3" y="2.171"/><use xlink:href="#4" y="4.342"/><use xlink:href="#5" y="6.513"/><use xlink:href="#6" y="8.684"/><use xlink:href="#7" y="10.855"/><use xlink:href="#8" y="13.026"/><use xlink:href="#9" y="15.197"/><use xlink:href="#10" y="17.368"/><use xlink:href="#11" y="19.539"/><use xlink:href="#12" y="21.71"/><use xlink:href="#13" y="23.881"/><use xlink:href="#14" y="26.052"/><use xlink:href="#15" y="28.223"/></svg><svg x="2560"><use xlink:href="#a"/><use xlink:href="#b" x="-.004" y="32.54"/><use xlink:href="#2"/><use xlink:href="#3" y="2.171"/><use xlink:href="#4" y="4.342"/><use xlink:href="#5" y="6.513"/><use xlink:href="#6" y="8.684"/><use xlink:href="#7" y="10.855"/><use xlink:href="#8" y="13.026"/><use xlink:href="#9" y="15.197"/><use xlink:href="#10" y="17.368"/><use xlink:href="#11" y="19.539"/><use xlink:href="#12" y="21.71"/><use xlink:href="#13" y="23.881"/><use xlink:href="#14" y="26.052"/><use xlink:href="#15" y="28.223"/><use xlink:href="#16" y="30.394"/></svg><svg x="2640"><use xlink:href="#a"/><use xlink:href="#b" x="-.004" y="34.711"/><use xlink:href="#2"/><use xlink:href="#3" y="2.171"/><use xlink:href="#4" y="4.342"/><use xlink:href="#5" y="6.513"/><use xlink:href="#6" y="8.684"/><use xlink:href="#7" y="10.855"/><use xlink:href="#8" y="13.026"/><use xlink:href="#9" y="15.197"/><use xlink:href="#10" y="17.368"/><use xlink:href="#11" y="19.539"/><use xlink:href="#12" y="21.71"/><use xlink:href="#13" y="23.881"/><use xlink:href="#14" y="26.052"/><use xlink:href="#15" y="28.223"/><use xlink:href="#16" y="30.394"/><use xlink:href="#17" y="32.565"/></svg><svg x="2720"><use xlink:href="#a"/><use xlink:href="#b" x="-.004" y="36.882"/><use xlink:href="#2"/><use xlink:href="#3" y="2.171"/><use xlink:href="#4" y="4.342"/><use xlink:href="#5" y="6.513"/><use xlink:href="#6" y="8.684"/><use xlink:href="#7" y="10.855"/><use xlink:href="#8" y="13.026"/><use xlink:href="#9" y="15.197"/><use xlink:href="#10" y="17.368"/><use xlink:href="#11" y="19.539"/><use xlink:href="#12" y="21.71"/><use xlink:href="#13" y="23.881"/><use xlink:href="#14" y="26.052"/><use xlink:href="#15" y="28.223"/><use xlink:href="#16" y="30.394"/><use xlink:href="#17" y="32.565"/><use xlink:href="#18" y="34.736"/></svg><svg x="2800"><use xlink:href="#a"/><use xlink:href="#b" x="-.004" y="39.053"/><use xlink:href="#2"/><use xlink:href="#3" y="2.171"/><use xlink:href="#4" y="4.342"/><use xlink:href="#5" y="6.513"/><use xlink:href="#6" y="8.684"/><use xlink:href="#7" y="10.855"/><use xlink:href="#8" y="13.026"/><use xlink:href="#9" y="15.197"/><use xlink:href="#10" y="17.368"/><use xlink:href="#11" y="19.539"/><use xlink:href="#12" y="21.71"/><use xlink:href="#13" y="23.881"/><use xlink:href="#14" y="26.052"/><use xlink:href="#15" y="28.223"/><use xlink:href="#16" y="30.394"/><use xlink:href="#17" y="32.565"/><use xlink:href="#18" y="34.736"/><use xlink:href="#19" y="36.907"/></svg><svg x="2880"><use xlink:href="#a"/><use xlink:href="#b" x="-.004" y="41.224"/><use xlink:href="#2"/><use xlink:href="#3" y="2.171"/><use xlink:href="#4" y="4.342"/><use xlink:href="#5" y="6.513"/><use xlink:href="#6" y="8.684"/><use xlink:href="#7" y="10.855"/><use xlink:href="#8" y="13.026"/><use xlink:href="#9" y="15.197"/><use xlink:href="#10" y="17.368"/><use xlink:href="#11" y="19.539"/><use xlink:href="#12" y="21.71"/><use xlink:href="#13" y="23.881"/><use xlink:href="#14" y="26.052"/><use xlink:href="#15" y="28.223"/><use xlink:href="#16" y="30.394"/><use xlink:href="#17" y="32.565"/><use xlink:href="#18" y="34.736"/><use xlink:href="#19" y="36.907"/><use xlink:href="#20" y="39.078"/></svg><svg x="2960"><use xlink:href="#a"/><use xlink:href="#b" x="-.004" y="41.224"/><use xlink:href="#3"/><use xlink:href="#4" y="2.171"/><use xlink:href="#5" y="4.342"/><use xlink:href="#6" y="6.513"/><use xlink:href="#7" y="8.684"/><use xlink:href="#8" y="10.855"/><use xlink:href="#9" y="13.026"/><use xlink:href="#10" y="15.197"/><use xlink:href="#11" y="17.368"/><use xlink:href="#12" y="19.539"/><use xlink:href="#13" y="21.71"/><use xlink:href="#14" y="23.881"/><use xlink:href="#15" y="26.052"/><use xlink:href="#16" y="28.223"/><use xlink:href="#17" y="30.394"/><use xlink:href="#18" y="32.565"/><use xlink:href="#19" y="34.736"/><use xlink:href="#20" y="36.907"/><use xlink:href="#21" y="39.078"/></svg><svg x="3040"><use xlink:href="#a"/><use xlink:href="#b" x="-.004" y="41.224"/><use xlink:href="#4"/><use xlink:href="#5" y="2.171"/><use xlink:href="#6" y="4.342"/><use xlink:href="#7" y="6.513"/><use xlink:href="#8" y="8.684"/><use xlink:href="#9" y="10.855"/><use xlink:href="#10" y="13.026"/><use xlink:href="#11" y="15.197"/><use xlink:href="#12" y="17.368"/><use xlink:href="#13" y="19.539"/><use xlink:href="#14" y="21.71"/><use xlink:href="#15" y="23.881"/><use xlink:href="#16" y="26.052"/><use xlink:href="#17" y="28.223"/><use xlink:href="#18" y="30.394"/><use xlink:href="#19" y="32.565"/><use xlink:href="#20" y="34.736"/><use xlink:href="#21" y="36.907"/><use xlink:href="#22" y="39.078"/></svg><svg x="3120"><use xlink:href="#a"/><use xlink:href="#b" x="-.004" y="41.224"/><use xlink:href="#4"/><use xlink:href="#5" y="2.171"/><use xlink:href="#6" y="4.342"/><use xlink:href="#7" y="6.513"/><use xlink:href="#8" y="8.684"/><use xlink:href="#9" y="10.855"/><use xlink:href="#10" y="13.026"/><use xlink:href="#11" y="15.197"/><use xlink:href="#12" y="17.368"/><use xlink:href="#13" y="19.539"/><use xlink:href="#14" y="21.71"/><use xlink:href="#15" y="23.881"/><use xlink:href="#16" y="26.052"/><use xlink:href="#17" y="28.223"/><use xlink:href="#18" y="30.394"/><use xlink:href="#19" y="32.565"/><use xlink:href="#20" y="34.736"/><use xlink:href="#21" y="36.907"/><use xlink:href="#22" y="39.078"/></svg><svg x="3200"><use xlink:href="#a"/><use xlink:href="#b" x="-.004" y="41.224"/><use xlink:href="#4"/><use xlink:href="#5" y="2.171"/><use xlink:href="#6" y="4.342"/><use xlink:href="#7" y="6.513"/><use xlink:href="#8" y="8.684"/><use xlink:href="#9" y="10.855"/><use xlink:href="#10" y="13.026"/><use xlink:href="#11" y="15.197"/><use xlink:href="#12" y="17.368"/><use xlink:href="#13" y="19.539"/><use xlink:href="#14" y="21.71"/><use xlink:href="#15" y="23.881"/><use xlink:href="#16" y="26.052"/><use xlink:href="#17" y="28.223"/><use xlink:href="#18" y="30.394"/><use xlink:href="#19" y="32.565"/><use xlink:href="#20" y="34.736"/><use xlink:href="#21" y="36.907"/><use xlink:href="#22" y="39.078"/></svg><svg x="3280"><use xlink:href="#a"/><use xlink:href="#b" x="5.996" y="41.224"/><use xlink:href="#4"/><use xlink:href="#5" y="2.171"/><use xlink:href="#6" y="4.342"/><use xlink:href="#7" y="6.513"/><use xlink:href="#8" y="8.684"/><use xlink:href="#9" y="10.855"/><use xlink:href="#10" y="13.026"/><use xlink:href="#11" y="15.197"/><use xlink:href="#12" y="17.368"/><use xlink:href="#13" y="19.539"/><use xlink:href="#14" y="21.71"/><use xlink:href="#15" y="23.881"/><use xlink:href="#16" y="26.052"/><use xlink:href="#17" y="28.223"/><use xlink:href="#18" y="30.394"/><use xlink:href="#19" y="32.565"/><use xlink:href="#20" y="34.736"/><use xlink:href="#21" y="36.907"/><use xlink:href="#22" y="39.078"/><use xlink:href="#1" y="41.249"/></svg><svg x="3360"><use xlink:href="#a"/><use xlink:href="#b" x="-.004" y="41.224"/><use xlink:href="#5"/><use xlink:href="#6" y="2.171"/><use xlink:href="#7" y="4.342"/><use xlink:href="#8" y="6.513"/><use xlink:href="#9" y="8.684"/><use xlink:href="#10" y="10.855"/><use xlink:href="#11" y="13.026"/><use xlink:href="#12" y="15.197"/><use xlink:href="#13" y="17.368"/><use xlink:href="#14" y="19.539"/><use xlink:href="#15" y="21.71"/><use xlink:href="#16" y="23.881"/><use xlink:href="#17" y="26.052"/><use xlink:href="#18" y="28.223"/><use xlink:href="#19" y="30.394"/><use xlink:href="#20" y="32.565"/><use xlink:href="#21" y="34.736"/><use xlink:href="#22" y="36.907"/><use xlink:href="#1" y="39.078"/></svg><svg x="3440"><use xlink:href="#a"/><use xlink:href="#b" x="-.004" y="41.224"/><use xlink:href="#5"/><use xlink:href="#6" y="2.171"/><use xlink:href="#7" y="4.342"/><use xlink:href="#8" y="6.513"/><use xlink:href="#9" y="8.684"/><use xlink:href="#10" y="10.855"/><use xlink:href="#11" y="13.026"/><use xlink:href="#12" y="15.197"/><use xlink:href="#13" y="17.368"/><use xlink:href="#14" y="19.539"/><use xlink:href="#15" y="21.71"/><use xlink:href="#16" y="23.881"/><use xlink:href="#17" y="26.052"/><use xlink:href="#18" y="28.223"/><use xlink:href="#19" y="30.394"/><use xlink:href="#20" y="32.565"/><use xlink:href="#21" y="34.736"/><use xlink:href="#22" y="36.907"/><use xlink:href="#1" y="39.078"/></svg></svg></g></g></svg></svg>